<?xml version="1.0" encoding="UTF-8" standalone="no"?>
<svg
   width="799.98419"
   height="135.465"
   version="1.1"
   viewBox="0 0 799.98419 135.465"
   id="svg21"
   xmlns="http://www.w3.org/2000/svg"
   xmlns:svg="http://www.w3.org/2000/svg">
  <defs
     id="defs11">
    <clipPath
       id="clipPath14735">
      <path
         d="m -9.9332,-6.715 h 20.071 V 3.4 h -20.071 z"
         id="path1" />
    </clipPath>
    <clipPath
       id="clipPath14741">
      <path
         d="M -19.736,-4.918 H 0.335 v 6.119 h -20.071 z"
         id="path2" />
    </clipPath>
    <clipPath
       id="clipPath14783">
      <path
         d="M -14.089,-6.2016 H 5.982 v 10.115 h -20.071 z"
         id="path3" />
    </clipPath>
    <clipPath
       id="clipPath14819">
      <path
         d="M -16.004,-6.6135 H 4.067 v 10.115 h -20.071 z"
         id="path4" />
    </clipPath>
    <clipPath
       id="clipPath14903">
      <path
         d="M -11.633,-6.6074 H 8.438 v 10.115 h -20.071 z"
         id="path5" />
    </clipPath>
    <clipPath
       id="clipPath14952">
      <path
         d="M -17.793,-6.8318 H 2.278 v 10.115 h -20.071 z"
         id="path6" />
    </clipPath>
    <clipPath
       id="clipPath15169">
      <path
         d="m -1.6989,-6.1193 h 20.071 v 6.119 h -20.071 z"
         id="path7" />
    </clipPath>
  </defs>
  <g
     fill="#37322f"
     id="g19"
     transform="translate(0.0117562,0.0914326)">
    <path
       transform="matrix(39.858,0,0,-39.858,67.703,-0.10339)"
       d="m 0,0 c -0.937,0 -1.699,-0.762 -1.699,-1.699 0,-0.937 0.762,-1.7 1.699,-1.7 0.937,0 1.699,0.763 1.699,1.7 C 1.699,-0.762 0.937,0 0,0 m 0,-0.349 c 0.745,0 1.35,-0.606 1.35,-1.35 0,-0.203 -0.045,-0.395 -0.125,-0.567 h -2.45 c -0.08,0.172 -0.125,0.364 -0.125,0.567 0,0.744 0.605,1.35 1.35,1.35"
       clip-path="url(#clipPath15169)"
       id="path11"
       style="fill:#4091b3;fill-opacity:1" />
    <path
       d="m 219.97,97.094 h 0.12 l 29.057,-71.785 h 13.472 v 86.731 h -8.8484 V 36.709 h -0.23919 l -31.369,75.331 h -4.6236 l -31.369,-75.331 h -0.27892 v 75.331 h -8.8087 V 25.309 h 13.472 z"
       stroke-width="1.3333"
       id="path12"
       style="fill:#4091b3;fill-opacity:1" />
    <path
       d="m 312.36,112.03 h -8.8086 V 74.683 l -32.485,-49.384 h 11.041 l 26.067,42.011 26.346,-42.011 h 10.323 l -32.485,49.384 z"
       stroke-width="1.3333"
       id="path13"
       style="fill:#4091b3;fill-opacity:1" />
    <path
       transform="matrix(39.858,0,0,-39.858,395.96,47.895)"
       d="m 0,0 c -0.045,0.057 -0.104,0.103 -0.177,0.137 -0.073,0.034 -0.143,0.05 -0.21,0.05 -0.035,0 -0.07,-0.003 -0.106,-0.009 C -0.529,0.172 -0.561,0.16 -0.59,0.143 -0.619,0.125 -0.643,0.103 -0.662,0.075 c -0.02,-0.027 -0.03,-0.063 -0.03,-0.106 0,-0.037 0.008,-0.067 0.023,-0.092 0.016,-0.025 0.038,-0.046 0.068,-0.064 0.03,-0.019 0.065,-0.036 0.106,-0.051 0.041,-0.016 0.087,-0.032 0.138,-0.048 0.074,-0.024 0.151,-0.052 0.231,-0.081 0.08,-0.03 0.153,-0.069 0.218,-0.119 0.066,-0.049 0.12,-0.11 0.163,-0.183 C 0.298,-0.741 0.32,-0.832 0.32,-0.941 0.32,-1.066 0.297,-1.174 0.251,-1.265 0.204,-1.356 0.142,-1.431 0.065,-1.491 -0.013,-1.55 -0.102,-1.594 -0.203,-1.623 c -0.1,-0.029 -0.204,-0.043 -0.31,-0.043 -0.156,0 -0.307,0.027 -0.452,0.081 -0.146,0.055 -0.267,0.132 -0.363,0.233 l 0.344,0.35 c 0.054,-0.066 0.124,-0.12 0.211,-0.165 0.087,-0.044 0.174,-0.066 0.26,-0.066 0.039,0 0.077,0.004 0.113,0.013 0.037,0.008 0.07,0.021 0.097,0.04 0.028,0.018 0.05,0.043 0.066,0.073 0.017,0.031 0.025,0.068 0.025,0.111 0,0.041 -0.01,0.076 -0.031,0.105 -0.02,0.028 -0.05,0.054 -0.087,0.078 -0.038,0.024 -0.086,0.045 -0.142,0.065 -0.056,0.019 -0.12,0.04 -0.192,0.063 -0.07,0.022 -0.138,0.049 -0.204,0.079 -0.067,0.031 -0.126,0.071 -0.179,0.119 -0.052,0.048 -0.094,0.106 -0.126,0.175 -0.031,0.069 -0.047,0.152 -0.047,0.251 0,0.12 0.024,0.224 0.073,0.31 0.05,0.086 0.114,0.157 0.194,0.212 0.08,0.055 0.17,0.096 0.271,0.121 0.1,0.026 0.201,0.039 0.304,0.039 0.123,0 0.248,-0.023 0.376,-0.068 C 0.127,0.508 0.239,0.442 0.335,0.354 Z"
       clip-path="url(#clipPath14735)"
       id="path14"
       style="fill:#4091b3;fill-opacity:1" />
    <path
       transform="matrix(39.858,0,0,-39.858,463.69,52.162)"
       d="m 0,0 c 0,0.051 -0.01,0.093 -0.031,0.126 -0.02,0.033 -0.048,0.058 -0.083,0.077 -0.035,0.018 -0.074,0.031 -0.118,0.037 -0.044,0.006 -0.09,0.009 -0.137,0.009 h -0.23 v -0.513 h 0.221 c 0.049,0 0.096,0.004 0.141,0.012 0.045,0.008 0.086,0.022 0.122,0.043 0.036,0.02 0.064,0.048 0.084,0.081 C -0.01,-0.094 0,-0.051 0,0 M 0.526,0.003 C 0.526,-0.124 0.502,-0.231 0.455,-0.318 0.408,-0.405 0.344,-0.475 0.264,-0.529 0.184,-0.582 0.092,-0.621 -0.012,-0.646 -0.117,-0.67 -0.225,-0.682 -0.338,-0.682 h -0.261 v -0.821 h -0.526 v 2.176 h 0.799 c 0.119,0 0.23,-0.012 0.334,-0.035 C 0.111,0.614 0.201,0.576 0.278,0.524 0.355,0.472 0.415,0.403 0.46,0.318 0.504,0.233 0.526,0.128 0.526,0.003"
       clip-path="url(#clipPath14903)"
       id="path15"
       style="fill:#4091b3;fill-opacity:1" />
    <path
       transform="matrix(39.858,0,0,-39.858,561.56,68.295)"
       d="M 0,0 C 0,0.094 -0.015,0.182 -0.046,0.264 -0.077,0.346 -0.119,0.417 -0.174,0.475 -0.228,0.533 -0.294,0.579 -0.37,0.613 -0.447,0.647 -0.532,0.664 -0.624,0.664 -0.716,0.664 -0.8,0.647 -0.876,0.613 -0.952,0.579 -1.017,0.533 -1.073,0.475 -1.128,0.417 -1.171,0.346 -1.2,0.264 -1.23,0.182 -1.245,0.094 -1.245,0 c 0,-0.098 0.015,-0.189 0.046,-0.272 0.031,-0.083 0.073,-0.154 0.128,-0.214 0.054,-0.059 0.119,-0.106 0.195,-0.14 0.076,-0.033 0.16,-0.05 0.252,-0.05 0.092,0 0.176,0.017 0.252,0.05 0.076,0.034 0.141,0.081 0.197,0.14 0.055,0.06 0.098,0.131 0.129,0.214 C -0.015,-0.189 0,-0.098 0,0 m 0.563,0 c 0,-0.172 -0.03,-0.329 -0.09,-0.472 C 0.414,-0.614 0.331,-0.736 0.226,-0.838 0.12,-0.939 -0.005,-1.017 -0.151,-1.073 c -0.145,-0.055 -0.303,-0.083 -0.473,-0.083 -0.17,0 -0.327,0.028 -0.472,0.083 -0.144,0.056 -0.269,0.134 -0.375,0.235 -0.105,0.102 -0.188,0.224 -0.247,0.366 -0.06,0.143 -0.089,0.3 -0.089,0.472 0,0.174 0.029,0.331 0.089,0.472 0.059,0.14 0.142,0.26 0.247,0.358 0.106,0.098 0.231,0.174 0.375,0.227 0.145,0.054 0.302,0.08 0.472,0.08 0.17,0 0.328,-0.026 0.473,-0.08 C -0.005,1.004 0.12,0.928 0.226,0.83 0.331,0.732 0.414,0.612 0.473,0.472 0.533,0.331 0.563,0.174 0.563,0"
       clip-path="url(#clipPath14783)"
       id="path16"
       style="fill:#4091b3;fill-opacity:1" />
    <path
       transform="matrix(39.858,0,0,-39.858,637.82,51.895)"
       d="M 0,0 C 0,0.051 -0.011,0.093 -0.032,0.125 -0.054,0.156 -0.082,0.181 -0.116,0.198 -0.15,0.216 -0.188,0.227 -0.23,0.234 -0.272,0.24 -0.313,0.243 -0.352,0.243 h -0.281 v -0.507 h 0.25 c 0.043,0 0.087,0.003 0.133,0.01 0.045,0.008 0.086,0.02 0.123,0.039 0.037,0.018 0.068,0.045 0.091,0.08 C -0.012,-0.1 0,-0.055 0,0 m 0.021,-1.509 -0.472,0.863 H -0.63 v -0.863 h -0.513 v 2.176 h 0.829 c 0.105,0 0.207,-0.011 0.306,-0.032 C 0.092,0.613 0.181,0.577 0.26,0.526 0.339,0.474 0.402,0.407 0.449,0.323 0.496,0.239 0.519,0.134 0.519,0.009 0.519,-0.138 0.48,-0.262 0.4,-0.363 0.32,-0.463 0.209,-0.535 0.068,-0.578 l 0.568,-0.931 z"
       clip-path="url(#clipPath14819)"
       id="path17"
       style="fill:#4091b3;fill-opacity:1" />
    <path
       transform="matrix(39.858,0,0,-39.858,709.15,43.229)"
       d="M 0,0 V -1.728 H -0.526 V 0 H -1.14 V 0.449 H 0.615 V 0 Z"
       clip-path="url(#clipPath14952)"
       id="path18"
       style="fill:#4091b3;fill-opacity:1" />
    <path
       transform="matrix(39.858,0,0,-39.858,786.62,47.895)"
       d="m 0,0 c -0.045,0.057 -0.104,0.103 -0.177,0.137 -0.073,0.034 -0.143,0.05 -0.21,0.05 -0.035,0 -0.071,-0.003 -0.106,-0.009 C -0.529,0.172 -0.562,0.16 -0.59,0.143 -0.619,0.125 -0.643,0.103 -0.662,0.075 c -0.02,-0.027 -0.03,-0.063 -0.03,-0.106 0,-0.037 0.008,-0.067 0.023,-0.092 0.016,-0.025 0.038,-0.046 0.068,-0.064 0.03,-0.019 0.065,-0.036 0.106,-0.051 0.041,-0.016 0.087,-0.032 0.138,-0.048 0.074,-0.024 0.151,-0.052 0.231,-0.081 0.08,-0.03 0.153,-0.069 0.218,-0.119 0.066,-0.049 0.12,-0.11 0.163,-0.183 C 0.298,-0.741 0.32,-0.832 0.32,-0.941 0.32,-1.066 0.297,-1.174 0.25,-1.265 0.204,-1.356 0.142,-1.431 0.065,-1.491 -0.013,-1.55 -0.103,-1.594 -0.203,-1.623 c -0.1,-0.029 -0.204,-0.043 -0.31,-0.043 -0.156,0 -0.307,0.027 -0.452,0.081 -0.146,0.055 -0.267,0.132 -0.363,0.233 l 0.344,0.35 c 0.054,-0.066 0.124,-0.12 0.211,-0.165 0.087,-0.044 0.174,-0.066 0.26,-0.066 0.039,0 0.077,0.004 0.113,0.013 0.037,0.008 0.07,0.021 0.097,0.04 0.028,0.018 0.05,0.043 0.066,0.073 0.017,0.031 0.025,0.068 0.025,0.111 0,0.041 -0.01,0.076 -0.031,0.105 -0.02,0.028 -0.05,0.054 -0.087,0.078 -0.038,0.024 -0.086,0.045 -0.142,0.065 -0.056,0.019 -0.12,0.04 -0.192,0.063 -0.07,0.022 -0.138,0.049 -0.204,0.079 -0.067,0.031 -0.126,0.071 -0.179,0.119 -0.052,0.048 -0.094,0.106 -0.126,0.175 -0.032,0.069 -0.047,0.152 -0.047,0.251 0,0.12 0.024,0.224 0.073,0.31 0.05,0.086 0.114,0.157 0.194,0.212 0.08,0.055 0.17,0.096 0.271,0.121 0.1,0.026 0.201,0.039 0.304,0.039 0.123,0 0.248,-0.023 0.376,-0.068 C 0.127,0.508 0.239,0.442 0.335,0.354 Z"
       clip-path="url(#clipPath14741)"
       id="path19"
       style="fill:#4091b3;fill-opacity:1" />
  </g>
</svg>
